<svg xmlns="http://www.w3.org/2000/svg" width="211.525" height="174.178" viewBox="0 0 211.525 174.178"><defs><style>.a,.b,.c,.e{fill:none;}.a,.b{stroke:#3e51cc;stroke-width:3px;}.a,.c{stroke-linecap:round;}.d,.f{stroke:none;}.f{fill:#3e51cc;}</style></defs><g transform="translate(-175.379 -1051)"><g transform="translate(307.815 1176.32)"><line class="a" x2="19.984" y2="19.984"/><line class="a" x2="19.984" y2="19.984" transform="translate(19.984) rotate(90)"/></g><g transform="translate(177.5 1203.073)"><line class="a" x2="19.984" y2="19.984" transform="translate(0)"/><line class="a" x2="19.984" y2="19.984" transform="translate(19.984) rotate(90)"/></g><g class="b" transform="translate(353.246 1051)"><circle class="d" cx="16.829" cy="16.829" r="16.829"/><circle class="e" cx="16.829" cy="16.829" r="15.329"/></g><line class="a" y1="24.164" x2="81.987" transform="translate(212.021 1185.947)"/><line class="a" x1="69.041" y1="25.027" transform="translate(246.541 1138.481)"/><line class="a" y1="25.89" x2="75.082" transform="translate(268.98 1078.681)"/><g class="c" transform="translate(217.773 1089.026)"><path class="d" d="M17.128,1.549a1,1,0,0,1,1.743,0l16.29,28.96A1,1,0,0,1,34.29,32H1.71a1,1,0,0,1-.872-1.49Z"/><path class="f" d="M 18.00000190734863 6.119192123413086 L 5.129541397094727 28.99999809265137 L 30.87045669555664 28.99999809265137 L 18.00000190734863 6.119192123413086 M 18 1.039730072021484 C 18.3402099609375 1.039730072021484 18.68042373657227 1.20964241027832 18.87157821655273 1.549467086791992 L 35.16172790527344 30.50973892211914 C 35.53668975830078 31.17633819580078 35.05497741699219 31.99999809265137 34.2901496887207 31.99999809265137 L 1.709846496582031 31.99999809265137 C 0.9450187683105469 31.99999809265137 0.4633064270019531 31.17633819580078 0.8382682800292969 30.50973892211914 L 17.12842750549316 1.549467086791992 C 17.31957817077637 1.20964241027832 17.65978813171387 1.039730072021484 18 1.039730072021484 Z"/></g></g></svg>