<svg xmlns="http://www.w3.org/2000/svg" width="30.032" height="30.032" viewBox="0 0 30.032 30.032">
  <path id="Facebook" d="M216.041,190.032H201.658A1.658,1.658,0,0,1,200,188.374V161.658A1.657,1.657,0,0,1,201.658,160h26.717a1.657,1.657,0,0,1,1.657,1.658v26.717a1.658,1.658,0,0,1-1.657,1.658h-7.653V178.4h3.9l.585-4.532h-4.488v-2.894c0-1.312.364-2.207,2.246-2.207h2.4v-4.054a32.051,32.051,0,0,0-3.5-.179c-3.46,0-5.829,2.112-5.829,5.991v3.343h-3.914V178.4h3.914v11.63Z" transform="translate(-200 -160)" fill="#3913b3" fill-rule="evenodd"/>
</svg>
