<svg xmlns="http://www.w3.org/2000/svg" width="33.035" height="30.032" viewBox="0 0 33.035 30.032">
  <path id="LinkedIn" d="M735.036,295.032h-7.3V284.475c0-2.763-1.142-4.65-3.653-4.65a3.684,3.684,0,0,0-3.486,2.5,4.637,4.637,0,0,0-.157,1.667v11.04H713.2s.093-18.7,0-20.4h7.233v3.2c.427-1.4,2.739-3.4,6.427-3.4,4.576,0,8.171,2.935,8.171,9.254v11.344Zm-29.147-22.953h-.047A3.56,3.56,0,0,1,702,268.542c0-2.015,1.556-3.542,3.933-3.542a3.575,3.575,0,0,1,3.882,3.536c0,1.977-1.507,3.542-3.927,3.542Zm-3.055,2.552h6.439v20.4h-6.439v-20.4Z" transform="translate(-702 -265)" fill="#3913b3" fill-rule="evenodd"/>
</svg>
