<svg xmlns="http://www.w3.org/2000/svg" width="35.75" height="30.032" viewBox="0 0 35.75 30.032">
  <g id="Group_2876" data-name="Group 2876" transform="translate(0)">
    <path id="Fill-53" d="M41.42,5.549a.112.112,0,0,0-.021-.017l-.012-.006L30.6.174a1.122,1.122,0,0,0-.227-.08,1.206,1.206,0,0,0-.3-.04,1.237,1.237,0,0,0-1.047.565L22.823,10.633,30.615,23.2,41.453,5.72a.13.13,0,0,0-.033-.171" transform="translate(-5.778 -0.054)" fill="#3913b3" fill-rule="evenodd"/>
    <path id="Fill-54" d="M18.29,11.053v11.4L28.5,27.518,18.29,11.053" transform="translate(-4.665 -2.756)" fill="#3913b3" fill-rule="evenodd"/>
    <path id="Fill-55" d="M33.855,28.436l8.4,4.17c1.094.543,1.98.163,1.98-.848V11.689L33.855,28.436" transform="translate(-8.488 -2.912)" fill="#3913b3" fill-rule="evenodd"/>
    <path id="Fill-56" d="M12.082,5.612,1.549.385A1.216,1.216,0,0,0,1.013.246C.552.246.229.6.229,1.195V23.766a1.95,1.95,0,0,0,.99,1.59l9.277,4.6a1.517,1.517,0,0,0,.669.174c.577,0,.981-.443.981-1.186V5.715a.115.115,0,0,0-.064-.1" transform="translate(-0.229 -0.101)" fill="#3913b3" fill-rule="evenodd"/>
  </g>
</svg>
