<svg id="Strytegy-Logo" xmlns="http://www.w3.org/2000/svg" width="112.34" height="31.622" viewBox="0 0 112.34 31.622">
  <rect id="Retângulo_352" data-name="Retângulo 352" width="31.622" height="31.622" rx="2" transform="translate(20.395)" fill="#caaae5"/>
  <path id="Caminho_26" data-name="Caminho 26" d="M0,52.333.7,49.65A13.379,13.379,0,0,0,8.816,51.9c2.618,0,3.4-.778,3.4-1.533,0-1.5-2.447-1.366-5.123-1.46C2.541,48.749.36,47.306.36,44.537c0-2.856,2.75-4.117,6.583-4.117a13.77,13.77,0,0,1,8.082,2.258l-.684,2.733a14.243,14.243,0,0,0-8.082-2.238c-1.46,0-2.769.383-2.769,1.365,0,1.15,1.424,1.48,4.364,1.533,4.136.077,7.493.8,7.493,4.287,0,2.827-2.94,4.287-7.091,4.287C4.818,54.648,1.533,53.68,0,52.333Z" transform="translate(0 -32.674)" fill="#22254b"/>
  <path id="Caminho_27" data-name="Caminho 27" d="M89.375,52.957v-3.85H86.51V46.83h1.4a1.439,1.439,0,0,0,1.46-1.46V43.89h3.034v2.94h4.08v2.277h-4.08V52.9a1.725,1.725,0,0,0,1.8,1.955,4.781,4.781,0,0,0,2.58-.958l.767,2.334a6.976,6.976,0,0,1-4.174,1.232C90.759,57.453,89.375,55.8,89.375,52.957Z" transform="translate(-69.93 -35.479)" fill="#22254b"/>
  <path id="Caminho_28" data-name="Caminho 28" d="M160.4,58.514l-.874,2.219a4.653,4.653,0,0,0-2.5-.7,3.286,3.286,0,0,0-2.942,1.533v6.708H151.05V57.924h2.068l.872,1.878a3.949,3.949,0,0,1,3.68-2.162A4.885,4.885,0,0,1,160.4,58.514Zm-6.66,3.7a3.2,3.2,0,0,0-.151.36Z" transform="translate(-122.101 -46.593)" fill="#22254b"/>
  <path id="Caminho_29" data-name="Caminho 29" d="M218.5,59.23l-7.7,12.749h-3.434l1.821-3.036-5.88-9.713h3.432l4.136,6.855,4.174-6.848Z" transform="translate(-164.346 -47.879)" fill="#22254b"/>
  <path id="Caminho_30" data-name="Caminho 30" d="M289.915,52.957v-3.85H287.05V46.83h1.4a1.437,1.437,0,0,0,1.462-1.46V43.89h3.036v2.94h4.078v2.277h-4.08V52.9a1.724,1.724,0,0,0,1.8,1.955,4.791,4.791,0,0,0,2.581-.958l.767,2.334a6.98,6.98,0,0,1-4.174,1.232C291.3,57.453,289.915,55.8,289.915,52.957Z" transform="translate(-232.037 -35.479)" fill="#22254b"/>
  <path id="Caminho_31" data-name="Caminho 31" d="M362.136,64.265h-10.51c.36,1.326,1.916,1.934,3.814,1.934a8.6,8.6,0,0,0,4.912-1.1l1.138,1.974a9.939,9.939,0,0,1-6.07,1.593c-4.174,0-6.792-2.049-6.811-5.366-.017-2.978,1.8-5.539,6.83-5.539C359.9,57.758,362.155,59.9,362.136,64.265Zm-10.472-2.277h7.4c-.284-1.177-1.4-1.765-3.622-1.765S351.931,60.811,351.664,61.988Z" transform="translate(-281.799 -46.69)" fill="#22254b"/>
  <path id="Caminho_32" data-name="Caminho 32" d="M442,58.114v7.911c0,3.168-2.618,5.083-6.867,5.121-2.769.019-5.349-.627-6.886-1.916l.767-2.3a10.844,10.844,0,0,0,6.133,1.744c2.3,0,3.833-1.043,3.833-2.447v-.941c-.816,1-2.277,1.763-4.7,1.763-4.04,0-6.133-2.143-6.133-4.6,0-2.6,2.01-4.6,6.133-4.6,2.087,0,3.795.512,4.856,2.03l.663-1.746Zm-3.034,4.326c-.4-1.29-1.9-2.145-4.1-2.145-2.656,0-3.7,1.044-3.7,2.145s1.044,2.146,3.7,2.146C437.067,64.586,438.566,63.73,438.964,62.44Z" transform="translate(-346.087 -46.763)" fill="#22254b"/>
  <path id="Caminho_33" data-name="Caminho 33" d="M522.084,59.23l-7.7,12.749h-3.436l1.821-3.036-5.88-9.713h3.432l4.136,6.855,4.174-6.848Z" transform="translate(-409.745 -47.879)" fill="#22254b"/>
</svg>
